<svg xmlns="http://www.w3.org/2000/svg" xmlns:xlink="http://www.w3.org/1999/xlink" version="1.1" x="0px" y="0px" viewBox="0 0 100 125" style="enable-background:new 0 0 100 100;" xml:space="preserve"><style type="text/css">
	.st0{display:none;}
	.st1{display:inline;}
	.st2{fill:none;}
	.st3{fill:#010101;}
	.st4{fill:none;stroke:#000000;stroke-miterlimit:10;}
	.st5{fill:#FFFFFF;}
	.st6{fill:none;stroke:#010101;stroke-miterlimit:10;}
	.st7{fill:none;stroke:#000000;stroke-width:1.5;stroke-linecap:square;stroke-miterlimit:10;stroke-dasharray:0,3;}
	.st8{fill:none;stroke:#FFFFFF;stroke-width:0.25;stroke-miterlimit:10;}
	.st9{fill:none;stroke:#000000;stroke-width:1.2;stroke-miterlimit:10;}
	.st10{fill:none;stroke:#000000;stroke-width:2;stroke-miterlimit:10;}
	.st11{fill:#FFFFFF;stroke:#000000;stroke-width:2;stroke-miterlimit:10;}
	.st12{stroke:#000000;stroke-width:0.75;stroke-miterlimit:10;}
	.st13{fill:none;stroke:#000000;stroke-width:3;stroke-miterlimit:10;}
	.st14{stroke:#000000;stroke-miterlimit:10;}
</style><g><g><path class="st2" d="M46.6,41C53.5,41,59,35.4,59,28.6c0-6.8-5.6-12.4-12.4-12.4c-6.8,0-12.4,5.6-12.4,12.4    C34.3,35.4,39.8,41,46.6,41z"/><path d="M46.6,45.2c9.1,0,16.5-7.4,16.5-16.5c0-9.1-7.4-16.6-16.5-16.6s-16.5,7.4-16.5,16.6C30.1,37.7,37.5,45.2,46.6,45.2z     M46.6,16.2c6.8,0,12.4,5.6,12.4,12.4C59,35.4,53.5,41,46.6,41c-6.8,0-12.4-5.6-12.4-12.4C34.3,21.8,39.8,16.2,46.6,16.2z"/><path d="M66.5,58.7l3.9-1l-2.5-10.2l-15.5,0l-0.2,1.7c0,0-0.2,1.6-1.1,3.1c-1.1,1.9-2.5,2.8-4.5,2.8c-4.6,0-5.5-5.6-5.5-5.9    l-0.2-1.7l-15.5,0l-7.3,28.6l3.9,1l6.5-25.6l9,0c1.1,3.8,4,7.6,9.2,7.6c5.1,0,8-4,9.1-7.6l9,0L66.5,58.7z"/><rect x="57.2" y="62.5" width="24.9" height="3.7"/><rect x="57.2" y="69.8" width="24.9" height="3.7"/><rect x="57.2" y="77" width="24.9" height="3.7"/></g></g></svg>