<svg xmlns="http://www.w3.org/2000/svg" xmlns:xlink="http://www.w3.org/1999/xlink" version="1.1" x="0px" y="0px" viewBox="0 0 100 125" enable-background="new 0 0 100 100" xml:space="preserve"><g><g><path d="M76.989,27.945c2.493,0,4.512,2.021,4.512,4.512v35.088c0,2.49-2.019,4.51-4.512,4.51H23.01    c-2.491,0-4.511-2.02-4.511-4.51V32.457c0-2.491,2.02-4.512,4.511-4.512H76.989 M76.989,24.945H23.01    c-4.142,0-7.511,3.37-7.511,7.512v35.088c0,4.141,3.369,7.51,7.511,7.51h53.979c4.142,0,7.512-3.369,7.512-7.51V32.457    C84.501,28.315,81.131,24.945,76.989,24.945L76.989,24.945z"/></g><g><path d="M49.999,57.795c-0.355,0-0.711-0.126-0.995-0.378l-26.5-23.5c-0.62-0.549-0.677-1.498-0.127-2.117    s1.498-0.676,2.117-0.127L49.999,54.29l25.507-22.618c0.62-0.551,1.57-0.493,2.117,0.127c0.55,0.62,0.493,1.568-0.127,2.117    l-26.502,23.5C50.71,57.669,50.354,57.795,49.999,57.795z"/></g></g></svg>