<svg xmlns="http://www.w3.org/2000/svg" viewBox="0 0 90 79.875" x="0px" y="0px"><title>Asset 25</title><g data-name="Layer 2"><g data-name="Layer 1"><path d="M16.07,33.3a5.39,5.39,0,0,1,10.17,0H63.77a5.39,5.39,0,0,1,10.17,0H90v-23a1.8,1.8,0,0,0-1.8-1.8H58.92A9,9,0,0,0,50,0h-9.9a9,9,0,0,0-9,8.46H1.8A1.8,1.8,0,0,0,0,10.26v23Zm24-29.7H50a5.41,5.41,0,0,1,5.37,4.86H34.68A5.41,5.41,0,0,1,40.05,3.6ZM90,36.9V62.1a1.8,1.8,0,0,1-1.8,1.8H1.8A1.8,1.8,0,0,1,0,62.1V36.9H16.07a5.39,5.39,0,0,0,10.17,0H63.77a5.39,5.39,0,0,0,10.17,0ZM68.85,33.3a1.8,1.8,0,1,1-1.8,1.8A1.8,1.8,0,0,1,68.85,33.3Zm-47.7,0a1.8,1.8,0,1,1-1.8,1.8A1.8,1.8,0,0,1,21.15,33.3Z"/></g></g></svg>