<svg xmlns="http://www.w3.org/2000/svg" xmlns:xlink="http://www.w3.org/1999/xlink" version="1.1" x="0px" y="0px" viewBox="0 0 100 125" style="enable-background:new 0 0 100 100;" xml:space="preserve"><g><path d="M20.696,0v79.302H100V0H20.696z M89.157,10.843v36.482l-17.87,8.133c0,0-21.372-24.978-28.154-24.978   c-4.002,0-8.48,4.082-11.594,7.594V10.843H89.157z M62.43,27.787c0-5.646,4.576-10.222,10.221-10.222   c5.646,0,10.224,4.576,10.224,10.222c0,5.646-4.578,10.223-10.224,10.223C67.006,38.01,62.43,33.434,62.43,27.787z M14.114,20.696   v66.879h65.188V100H0V20.696H14.114z"/></g></svg>