<svg xmlns="http://www.w3.org/2000/svg" xmlns:xlink="http://www.w3.org/1999/xlink" version="1.1" x="0px" y="0px" viewBox="0 0 100 125" enable-background="new 0 0 100 100" xml:space="preserve"><g><path d="M14,86.2c-4.4,0-7.5-3.6-7.5-8V24c0-4.4,3.6-8,8-8h16.7c4.4,0,8,3.6,8,8c0,0,30,0,34,0s5.3,4.2,5.3,5.7   c1.2,0-58.4,0-58.4,0v5.2c0,0,0,41,0,43.8C20.1,81.5,17.2,86.2,14,86.2z"/><path d="M25.3,34.8l68.2,0v43.3c0,4.4-4.6,8-9,8c0,0-50.8,0-63.8,0c2-0.6,4.6-3.9,4.6-8.2C25.3,76.8,25.4,40.1,25.3,34.8z"/></g></svg>