<svg xmlns="http://www.w3.org/2000/svg" xmlns:xlink="http://www.w3.org/1999/xlink" version="1.1" x="0px" y="0px" viewBox="0 0 200 187.5" enable-background="new 0 0 200 150" xml:space="preserve"><path d="M0,0v150h200V0H0z M196,146H4V4h192V146z"/><rect x="55" y="110" width="90" height="4"/><rect x="55" y="100" width="90" height="4"/><rect x="55" y="90" width="90" height="4"/><path d="M100,75c12.426,0,22.5-10.074,22.5-22.5c0-12.426-10.074-22.5-22.5-22.5S77.5,40.074,77.5,52.5  C77.5,64.926,87.574,75,100,75z M87.373,66.301c0.543-1.222,3.142-2.253,5.229-3.082c0.562-0.223,1.108-0.44,1.606-0.654  c2.351-1.012,2.565-1.76,2.626-2.785c0.006-0.088,0.011-0.177,0.02-0.27c0.028-0.285,0.037-0.607,0.034-0.921l-0.002-0.229  l-0.176-0.147c-0.755-0.638-1.26-1.331-1.592-2.184c-0.084-0.217-0.146-0.518-0.202-0.78c-0.038-0.177-0.073-0.339-0.102-0.445  l-0.084-0.312l-0.318-0.052c-0.353-0.058-0.58-0.53-0.668-0.917l-0.016-0.071l-0.036-0.063c-0.1-0.177-0.325-0.641-0.275-1.145  c0.046-0.476,0.19-0.786,0.431-0.923l0.281-0.16l-0.03-0.322c-0.028-0.293-0.047-0.652-0.047-1.118c0-0.507,0.024-1.057,0.071-1.591  l0.069-0.798l-0.118,0.046l0.138-0.366l0.17-0.232l-0.092-0.315c-0.023-0.074-0.061-0.14-0.107-0.195  c0.439-0.842,0.418-0.992,0.4-1.118c-0.011-0.077-0.039-0.175-0.104-0.268l0.476-0.476l0.037-0.075  c0.304-0.621,0.671-1.246,0.914-1.576c0.19,0.132,0.41,0.22,0.603,0.22h0.103l0.166-0.054c0.265-0.113,0.376-0.376,0.546-0.772  c0.027-0.064,0.064-0.151,0.105-0.242l0.251,0.028h0.235l0.171-0.192c0.106-0.128,0.209-0.272,0.317-0.425  c0.171-0.242,0.346-0.488,0.574-0.704c0.025,0.06,0.058,0.116,0.098,0.17l0.638,0.873l0.205-0.857  c0.002,0.005,0.045,0.151,0.045,0.151l0.106,0.096c0.128,0.114,0.291,0.175,0.473,0.175c0.072,0,0.145-0.011,0.217-0.028  c0,0.007-0.006,0.482-0.006,0.482l0.46,0.042c0.318,0.029,0.34,0.08,0.44,0.326c0.129,0.312,0.345,0.837,1.219,0.952  c0.23,0.019,0.374,0.029,0.503,0.029c0.025,0,0.059,0,0.098-0.001c0.026,0.103,0.052,0.222,0.068,0.327l0.077,0.497l0.497-0.08  c0.008-0.001,0.106-0.017,0.231-0.024c0.019,0.054,0.041,0.104,0.064,0.146l-0.067,0.133l0.377,0.33l0.181,0.092l0.139,0.039  l0.038,0.191l0.509,1.083l-0.003,0.001c0.375,1.002,0.475,2.065,0.475,2.535c0,0.435-0.113,1.283-0.198,1.883l0.001,0.838  l0.307,0.272c0.282,0.117,0.45,0.438,0.5,0.955c0.049,0.506-0.177,0.97-0.275,1.146l-0.036,0.063l-0.016,0.071  c-0.087,0.379-0.31,0.847-0.653,0.915l-0.306,0.06l-0.08,0.301c-0.036,0.135-0.068,0.371-0.099,0.618  c-0.024,0.194-0.064,0.521-0.098,0.609c-0.349,0.897-0.862,1.585-1.647,2.236l-0.18,0.149l-0.001,0.233  c-0.001,0.296,0.008,0.599,0.035,0.866c0.01,0.106,0.014,0.209,0.018,0.309c0.038,0.981,0.243,1.753,2.548,2.746  c0.498,0.214,1.044,0.432,1.606,0.654c2.088,0.829,4.687,1.86,5.229,3.081c0.041,0.092,0.077,0.193,0.11,0.302  c-3.526,3.379-8.145,5.236-13.036,5.236c-4.682,0-9.153-1.723-12.625-4.856C87.225,66.703,87.296,66.475,87.373,66.301z"/></svg>