<svg xmlns="http://www.w3.org/2000/svg" xmlns:xlink="http://www.w3.org/1999/xlink" version="1.1" x="0px" y="0px" viewBox="0 0 75 93.75" enable-background="new 0 0 75 75" xml:space="preserve"><path d="M50.046,9.929H16.854v55.247H59.4l0.079-46.652L50.046,9.929z M57.383,63.314H18.671V12.025h30.396v8.315h8.315V63.314z   M44.176,21.948H23.073V20.69h21.103V21.948z M54.028,26.6H23.073v-1.258h30.955V26.6z M36.42,31.251H23.073v-1.258H36.42V31.251z   M54.028,35.903H23.073v-1.258h30.955V35.903z M54.028,45.207H23.073v-1.258h30.955V45.207z M54.028,49.858H23.073v-1.258h30.955  V49.858z M45.783,40.555h-22.71v-1.258h22.71V40.555z M36.245,54.511H23.073v-1.258h13.172V54.511z"/></svg>